<svg x="3" y="1.5999999" viewBox="0 0 22.1 23.399998" xmlns="http://www.w3.org/2000/svg">
	<path d="M 12.3,5.8 L 10.7,6.5 11.2,6.5 Z M 10.7,6.5 L 7.675,4.5 7.9,4.9 Z M 7.675,4.5 L 12.3,1.7 7.9,4.1 Z M 12.3,1.7 L 21.9,6.9 12.8,1.7 Z M 21.9,6.9 L 22.1,10.5 22.1,7.3 Z M 22.1,10.5 L 21.4,10.9 21.8625,10.925 Z M 12.3,5.8 L 7.675,4.5 10.7,6.5 Z M 7.675,4.5 L 21.9,6.9 12.3,1.7 Z M 21.9,6.9 L 21.4,10.9 22.1,10.5 Z M 12.8,5.9 L 7.675,4.5 12.3,5.8 Z M 21.9,6.9 L 12.8,5.9 21.4,10.9 Z M 12.8,5.9 L 21.9,6.9 7.675,4.5 Z " style="fill:#FFFFFF;fill-opacity:1;" />
	<path d="M 3.2,6.9 L 5.5,5.8 5,5.8 Z M 5.5,5.8 L 22.1,15.5 21.9,15.1 Z M 22.1,15.5 L 21.9,18.1 22.1,17.7 Z M 21.9,18.1 L 12.3,23.3 12.8,23.3 Z M 12.3,23.3 L 3,17.7 3.2,18.1 Z M 3,17.7 L 3.2,14.150001 3,14.5 Z M 3.2,14.150001 L 12.3,19.1 3.7,14.1 Z M 15.4,16.8 L 3,9.5 3.2,9.8 Z M 3,9.5 L 3.2,6.9 3,7.3 Z M 3.2,6.9 L 22.1,15.5 5.5,5.8 Z M 22.1,15.5 L 12.3,23.3 21.9,18.1 Z M 12.3,23.3 L 3.2,14.150001 3,17.7 Z M 15.4,16.8 L 3.2,6.9 3,9.5 Z M 12.3,23.3 L 12.3,19.1 3.2,14.150001 Z M 15.4,16.8 L 22.1,15.5 3.2,6.9 Z M 12.3,23.3 L 12.8,19.1 12.3,19.1 Z M 15.625,17.2 L 22.1,15.5 15.4,16.8 Z M 22.1,15.5 L 12.8,19.1 12.3,23.3 Z M 15.4,17.6 L 22.1,15.5 15.625,17.2 Z M 22.1,15.5 L 15.4,17.6 12.8,19.1 Z " style="fill:#FFFFFF;fill-opacity:1;" />
</svg>
