<svg width="128" height="128" viewBox="0 0 128 128" fill="none" xmlns="http://www.w3.org/2000/svg">
<path d="M124.902 100.466C124.252 100.077 123.709 99.5341 123.32 98.8848L122.761 97.7168C122.932 97.5088 123.055 97.2659 123.122 97.0054C123.189 96.7448 123.199 96.4726 123.15 96.208C123.094 95.7728 122.979 95.3472 122.809 94.9427C122.524 93.8837 122.018 92.8969 121.325 92.047C121.189 91.9208 121.088 91.7615 121.033 91.5847C121.033 91.5847 121.033 91.4386 120.668 91.2683C120.304 91.0622 119.894 90.9532 119.475 90.952C119.183 91.3413 118.867 91.6819 118.867 91.6819H118.113C117.942 91.6819 117.82 91.682 117.334 91.9254L116.847 92.2174L116.604 92.047C115.355 91.1037 114.183 90.0621 113.1 88.9322C111.426 87.2995 109.842 85.5774 108.355 83.7735C107.61 82.7699 106.797 81.8187 105.921 80.9265C104.662 79.9152 103.26 79.0952 101.761 78.4932C100.004 77.8393 98.1574 77.4617 96.2855 77.3738C95.3553 77.1206 94.5132 76.6154 93.8521 75.9138C92.8301 74.8431 89.8374 72.6288 88.1097 71.0471C88.1097 71.0471 85.8951 69.149 84.1917 67.6403C81.004 64.9636 79.325 63.8686 79.325 63.8686C78.5087 63.0077 77.9669 61.9236 77.7679 60.754C77.4345 59.5304 76.8544 58.3877 76.0641 57.3959C75.0478 56.3967 73.8718 55.5743 72.5845 54.9626C72.0212 54.6747 71.498 54.3148 71.0275 53.8919C71.057 53.5763 71.057 53.2585 71.0275 52.9429C71.0275 52.2372 70.8569 50.8502 70.7839 50.7042L70.0294 50.2175V49.4388L70.589 49.0008C70.735 48.8305 70.8813 48.8548 70.8326 48.2708C70.7839 47.6868 70.8326 47.0298 70.8326 47.0298C70.8171 46.6611 70.6604 46.3125 70.3948 46.0564L67.3043 41.7251L66.7447 40.9951C66.6587 40.8868 66.5516 40.7965 66.4304 40.7297C66.3093 40.6629 66.1765 40.6207 66.0389 40.6057L65.0165 40.3381C64.8045 40.2598 64.5721 40.2598 64.3601 40.3381C64.1327 40.424 63.8817 40.424 63.6543 40.3381L62.535 40.0217L61.7318 38.9267C61.6291 38.7702 61.4864 38.6442 61.3184 38.5617L60.3203 37.9534L58.1062 38.5617H57.8626H57.644L57.3517 37.0529L58.5684 36.1284C59.0189 35.8059 59.4497 35.4564 59.8581 35.0819L60.5639 34.4006C59.755 34.4854 58.9394 34.4854 58.1305 34.4006H57.9113L58.1792 34.1087C59.7349 32.8955 60.8122 31.1719 61.2209 29.2419C60.6402 29.7641 59.9225 30.1101 59.1523 30.2395C58.4953 30.3612 57.9355 30.2395 57.7408 30.5072C58.5383 29.6402 59.1221 28.5985 59.4446 27.4655C59.6658 26.3543 59.59 25.2045 59.2254 24.1318C58.6394 25.3968 57.5832 26.3833 56.2811 26.8815C55.5584 27.1737 54.8087 27.3939 54.0426 27.5385C53.41 27.7089 52.7529 27.8792 52.1445 28.0982C51.519 28.3095 50.9286 28.613 50.3926 28.9985C50.0946 29.2522 49.8251 29.5379 49.5894 29.8503C49.4025 30.0901 49.2319 30.3421 49.0785 30.6046L48.7131 31.0913C49.0904 29.9373 49.2713 28.7281 49.2484 27.5142C49.2484 28.1712 47.5937 29.6069 46.815 30.3855C46.3123 30.7469 45.9069 31.2271 45.6352 31.7834C45.3634 32.3397 45.234 32.9546 45.2579 33.5732C45.0846 33.606 44.9195 33.6722 44.7714 33.7679C44.09 34.2789 43.7494 34.5466 42.9464 34.3519C42.5327 34.2059 42.4109 34.1086 42.2162 34.0356C42.1085 33.9989 42.0089 33.9409 41.9239 33.8652C42.3516 34.589 42.9654 35.1855 43.7008 35.593C43.856 35.6738 43.9893 35.7906 44.09 35.9337C44.09 36.177 43.5303 37.1016 43.4816 37.2476C43.3414 37.55 43.2814 37.8834 43.307 38.2157C43.3325 38.548 43.443 38.8683 43.6278 39.1457C43.8954 39.5594 44.4791 40.557 44.4791 40.557C44.5612 40.653 44.651 40.7426 44.747 40.8248C44.6463 40.3859 44.5971 39.9366 44.6009 39.4863C44.6283 39.2028 44.7306 38.9318 44.8973 38.7009C45.0641 38.47 45.2891 38.2875 45.5496 38.1723C45.5496 38.3183 45.5496 38.5374 45.5496 38.8294C45.5406 39.1281 45.5903 39.4257 45.6958 39.7054L45.9393 40.2164C46.0434 40.4166 46.0875 40.6425 46.0659 40.8671C46.0443 41.0916 45.9579 41.305 45.8176 41.4817C45.6853 41.6558 45.539 41.8186 45.3797 41.9684C45.2094 42.1144 45.1117 42.1631 45.0631 42.3578C45.1964 42.4789 45.3545 42.5701 45.5259 42.6254L46.1823 42.8931C46.4987 42.8931 46.8881 43.1607 46.8881 43.477C46.8816 43.5505 46.8589 43.6216 46.821 43.6848C46.783 43.748 46.7312 43.8018 46.6695 43.8421L45.6958 44.3044L45.1605 44.5964L44.2605 44.7911C42.8421 45.0884 41.4014 45.2674 39.9534 45.3264C39.4536 45.3715 38.952 45.261 38.5175 45.0101C37.2719 44.3173 35.8509 44.0043 34.4296 44.1097C33.2054 44.2697 31.9995 44.5468 30.8283 44.9371C30.0451 45.2039 29.2222 45.3355 28.3949 45.3264C27.9982 45.357 27.6012 45.2726 27.2513 45.0831C27.2513 45.0831 27.0317 44.8885 26.0827 45.0831C25.7907 45.0831 25.4014 45.0831 24.866 45.0831L24.5987 45.4724C24.4569 45.4123 24.3257 45.3303 24.2096 45.2291C23.7021 44.9107 23.1012 44.7734 22.5058 44.8397C22.2553 44.8705 22.0024 44.8705 21.7519 44.8397C21.8382 44.5364 21.9029 44.2274 21.9461 43.915C21.9768 43.7275 21.933 43.5356 21.8243 43.3798L21.3134 42.5767C21.3134 42.5767 21.3138 42.4307 21.0461 42.382C20.7937 42.3024 20.5613 42.1697 20.3647 41.9927C20.0224 41.6719 19.5684 41.4972 19.0993 41.506C18.9979 41.537 18.8897 41.5398 18.7868 41.514C18.6839 41.4883 18.5902 41.4351 18.5153 41.36C18.3473 41.2684 18.1589 41.2204 17.9676 41.2204C17.7763 41.2204 17.5884 41.2684 17.4204 41.36C16.9649 41.5735 16.4618 41.6657 15.9602 41.6277L6.66454 41.8711C6.48783 41.8609 6.32216 41.7823 6.20234 41.652C6.20234 41.652 5.95898 41.4087 5.56965 41.652C5.18031 41.8954 5.56965 42.8687 5.56965 42.8687H4.59654C4.59654 42.8687 4.35335 42.2847 3.526 42.6011C3.54513 42.7464 3.54513 42.8937 3.526 43.039V43.185C3.35596 43.1708 3.18454 43.1708 3.0145 43.185C2.96546 43.6542 2.96546 44.1273 3.0145 44.5964H3.526V45.4968C3.64149 45.6591 3.79455 45.7906 3.97275 45.8797C4.15095 45.9688 4.34865 46.0128 4.54782 46.0078C4.91283 46.0078 5.35069 46.0078 5.61836 46.3971C6.13337 47.196 6.71099 47.9527 7.34595 48.6601C7.73529 49.0251 8.27106 49.7308 11.4344 50.3148C12.5276 50.5064 13.6338 50.6122 14.7435 50.6311L15.9845 52.0425C15.9845 52.0425 16.1308 52.4076 16.8608 52.5536C17.5908 52.6996 20.024 53.2349 20.973 53.3079C21.4354 53.3079 21.5812 53.3078 21.9948 53.0645C22.3142 52.8633 22.5482 52.5514 22.6519 52.1885V51.7749H22.8224C23.5238 51.3265 24.1622 50.7863 24.7205 50.1688C24.7691 50.3099 24.8255 50.448 24.8904 50.5824C24.8904 50.5824 24.8906 50.9231 25.718 50.9231C26.8906 50.9162 28.0491 51.1829 29.1007 51.7018C29.625 51.9402 30.1025 52.2698 30.5116 52.6752C31.3719 53.5431 32.5274 54.0556 33.7482 54.1108L37.7873 54.4515C38.3701 54.5493 38.9685 54.4818 39.5149 54.2568C39.7346 54.2005 39.9308 54.076 40.0752 53.9011C40.2195 53.7262 40.3046 53.5099 40.3181 53.2836C40.3181 53.0646 40.3181 52.6266 40.3181 52.5292V52.2129C40.4679 52.161 40.6306 52.161 40.7803 52.2129L44.9656 53.6972C44.9656 53.6972 45.3552 53.6971 45.2092 53.0401C45.0632 52.3831 45.0387 52.0182 45.0387 52.0182C45.0279 51.973 45.0275 51.926 45.0369 51.8805C45.0464 51.835 45.0655 51.7922 45.0934 51.755C45.1212 51.7178 45.1569 51.6872 45.1979 51.6654C45.239 51.6436 45.2846 51.6312 45.331 51.6289C45.8071 51.6596 46.2796 51.7328 46.7425 51.8478C47.5489 51.9718 48.3695 51.9718 49.1759 51.8478L49.9298 51.6289C50.4895 51.4342 50.5627 51.3369 50.733 51.4585C50.9055 51.9166 50.9803 52.4055 50.9522 52.8941C50.9652 53.2729 51.1115 53.6351 51.3657 53.9163L53.9696 56.6416L54.7722 57.5419C54.9096 57.698 55.078 57.8238 55.2664 57.9118C55.4549 57.9997 55.6598 58.0477 55.8676 58.0529L56.8895 58.2719C57.3381 58.3931 57.816 58.341 58.2279 58.1259C58.4275 58.0388 58.6429 57.9939 58.8606 57.9939C59.0784 57.9939 59.2938 58.0388 59.4933 58.1259C60.199 58.3206 62.8752 58.8802 63.2646 58.9532L63.4594 59.4155V59.6346C63.5564 59.9328 63.6699 60.2252 63.7998 60.5106L64.7735 62.3356C64.7735 62.3356 64.0924 62.7006 62.535 63.3576C56.636 65.9641 51.4341 69.924 47.3509 74.916C46.4205 75.9813 45.7684 77.2605 45.4528 78.6392C45.517 79.0833 45.7118 79.4983 46.0124 79.8315C46.3518 80.4361 46.8366 80.9463 47.4234 81.3158C47.7154 81.4618 47.74 81.5835 49.5894 81.6321H52.0227C52.7136 81.6445 53.402 81.5544 54.0664 81.3645C55.2587 81.0482 55.8917 80.8779 56.1837 80.8292C56.4757 80.7806 57.0112 80.5859 58.1792 80.1722C61.5896 78.8645 65.2397 78.3004 68.8858 78.5175L69.105 78.8339C69.105 78.8339 69.1051 79.0771 69.8108 79.1744C71.2862 79.6118 72.7131 80.1989 74.0692 80.9265C74.5309 81.214 74.9489 81.5663 75.3102 81.9728C75.6752 82.4109 76.2348 82.9219 77.0621 83.9439C77.4175 84.3725 77.7503 84.8192 78.0596 85.2822C78.3375 85.6869 78.647 86.0694 78.9846 86.4259C79.1535 86.6083 79.2634 86.8371 79.3006 87.0829C79.3359 87.4305 79.5008 87.7522 79.7628 87.9833C80.0792 88.324 80.3473 88.6889 80.7853 88.2022C81.2233 87.7156 80.9308 88.2023 80.9308 86.7667C80.9308 85.842 80.931 85.2336 81.1013 85.0389C81.2164 84.8699 81.2935 84.678 81.3271 84.4763C81.3607 84.2746 81.3503 84.0681 81.2962 83.8709C81.3058 83.6692 81.2525 83.4693 81.1435 83.2993C81.0345 83.1292 80.8752 82.9974 80.6878 82.9219C80.8102 82.3908 80.7228 81.833 80.4443 81.3645C80.3778 81.2761 80.294 81.2024 80.1977 81.148C80.1014 81.0935 79.9947 81.0595 79.8846 81.0482C79.8021 80.7652 79.6596 80.5035 79.4664 80.2809C79.2732 80.0583 79.0339 79.8801 78.7654 79.7586C78.2787 79.4665 77.9865 79.3692 77.3051 78.0308C77.1318 77.6576 76.9776 77.276 76.8429 76.8872C76.8429 76.8872 77.2807 76.4977 77.2564 75.0864L78.5462 75.7922L81.3449 77.2034C83.5729 78.3441 85.924 79.2259 88.3527 79.8315L89.545 80.0749C89.8079 80.1025 90.0553 80.2132 90.2508 80.3911C90.8362 80.9158 91.4539 81.4035 92.1002 81.8512C92.915 82.3116 93.8048 82.6246 94.7284 82.7759C95.5699 82.8609 96.3918 83.0827 97.1617 83.4328C97.1617 83.4328 100.982 85.4282 102.393 86.0609C104.343 87.0293 106.222 88.1352 108.014 89.3702L110.01 90.6113C110.18 90.6113 110.569 91.0493 111.323 91.7307L113.587 93.7504L113.83 94.0667H113.124L113.003 95.04L115.728 96.9867C116.75 97.7896 117.702 98.6769 118.575 99.6391L120.814 101.756C120.814 101.756 121.495 102.389 121.301 102.656C121.106 102.924 119.451 103.727 119.451 104.409C119.451 105.09 121.884 104.944 122.42 104.895C122.944 104.835 123.459 104.713 123.953 104.53H124.172C124.443 104.401 124.665 104.188 124.804 103.922C125.111 103.139 125.323 102.322 125.437 101.488C125.452 101.285 125.41 101.082 125.315 100.901C125.221 100.721 125.077 100.57 124.902 100.466Z" fill="#05A0FA"/>
<path d="M33.6021 21.65L65.8929 13.5468L98.1593 21.65V68.8086L105.459 72.1179V18.8028C105.466 17.9782 105.192 17.1757 104.684 16.5262C104.176 15.8766 103.463 15.4183 102.661 15.2259L66.7204 6.2224C66.1559 6.0608 65.5574 6.0608 64.9928 6.2224L29.052 15.2259C28.2522 15.4222 27.5414 15.8816 27.0339 16.5303C26.5265 17.179 26.2514 17.9792 26.2533 18.8028V35.8364H33.5534L33.6021 21.65Z" fill="#05A0FA"/>
<path d="M65.8929 112.706L33.6021 91.1954V62.2141H26.302V93.1422C26.2999 93.7481 26.4477 94.345 26.7321 94.8799C27.0166 95.4148 27.4287 95.8711 27.9322 96.2081L63.873 120.152C64.4704 120.565 65.1795 120.786 65.9054 120.786C66.6312 120.786 67.3398 120.565 67.9371 120.152L103.439 96.5003L95.5554 92.9475L65.8929 112.706Z" fill="#05A0FA"/>
</svg>
